# xmcd
#
# Track frame offsets: 
#        183
#        69633
#        96258
#        149208
#        174783
#        213408
#
# Disc length: 4233 seconds
#
# Revision: 3
# Processed by: cddbd v1.5.2PL0 Copyright (c) Steve Scherf et al.
# Submitted via: ExactAudioCopy v1.1
#
DISCID=59108706
DTITLE=London Symphony Orchestra, Igor Markevitch - Complete Orchestra
DTITLE=l Works - Disc 2
DYEAR=1900
DGENRE=Classical
TTITLE0=Symphony No 3 in D, Op. 29 - Polish - Introduzione e Allegro
TTITLE1=Alla tedesca. Allegro moderato
TTITLE2=Andante elegiaco
TTITLE3=Scherzo. Allegro vivo
TTITLE4=Finale. Allegro con fuoco
TTITLE5=Francesca di Rimini, Op. 32
EXTD=ID3G: 32
EXTT0=
EXTT1=
EXTT2=
EXTT3=
EXTT4=
EXTT5=
PLAYORDER=
